<svg width="129" height="19" viewBox="0 0 129 19" fill="none" xmlns="http://www.w3.org/2000/svg">
<path d="M7.64044 18.336C5.59244 18.336 3.96844 17.76 2.76844 16.608C1.56844 15.44 0.968438 13.76 0.968438 11.568V7.632C0.968438 5.44 1.56844 3.768 2.76844 2.616C3.96844 1.448 5.59244 0.863999 7.64044 0.863999C9.65644 0.863999 11.2084 1.424 12.2964 2.544C13.4004 3.664 13.9524 5.192 13.9524 7.128V7.272H11.3844V7.056C11.3844 5.92 11.0724 4.992 10.4484 4.272C9.84044 3.552 8.90444 3.192 7.64044 3.192C6.36044 3.192 5.36044 3.584 4.64044 4.368C3.92044 5.136 3.56044 6.208 3.56044 7.584V11.616C3.56044 12.976 3.92044 14.048 4.64044 14.832C5.36044 15.616 6.36044 16.008 7.64044 16.008C8.90444 16.008 9.84044 15.648 10.4484 14.928C11.0724 14.192 11.3844 13.264 11.3844 12.144V11.736H13.9524V12.072C13.9524 14.008 13.4004 15.536 12.2964 16.656C11.2084 17.776 9.65644 18.336 7.64044 18.336ZM22.4383 18.336C21.2543 18.336 20.1983 18.096 19.2703 17.616C18.3583 17.12 17.6383 16.416 17.1103 15.504C16.5823 14.592 16.3183 13.512 16.3183 12.264V11.904C16.3183 10.656 16.5823 9.584 17.1103 8.688C17.6383 7.776 18.3583 7.072 19.2703 6.576C20.1983 6.08 21.2543 5.832 22.4383 5.832C23.6223 5.832 24.6783 6.08 25.6063 6.576C26.5343 7.072 27.2623 7.776 27.7903 8.688C28.3183 9.584 28.5823 10.656 28.5823 11.904V12.264C28.5823 13.512 28.3183 14.592 27.7903 15.504C27.2623 16.416 26.5343 17.12 25.6063 17.616C24.6783 18.096 23.6223 18.336 22.4383 18.336ZM22.4383 16.128C23.5263 16.128 24.4063 15.784 25.0783 15.096C25.7663 14.392 26.1103 13.424 26.1103 12.192V11.976C26.1103 10.744 25.7743 9.784 25.1023 9.096C24.4303 8.392 23.5423 8.04 22.4383 8.04C21.3663 8.04 20.4863 8.392 19.7983 9.096C19.1263 9.784 18.7903 10.744 18.7903 11.976V12.192C18.7903 13.424 19.1263 14.392 19.7983 15.096C20.4863 15.784 21.3663 16.128 22.4383 16.128ZM36.5559 18.336C35.5799 18.336 34.6759 18.096 33.8439 17.616C33.0119 17.136 32.3399 16.448 31.8279 15.552C31.3319 14.64 31.0839 13.544 31.0839 12.264V11.904C31.0839 10.64 31.3319 9.552 31.8279 8.64C32.3239 7.728 32.9879 7.032 33.8199 6.552C34.6519 6.072 35.5639 5.832 36.5559 5.832C37.3239 5.832 37.9639 5.928 38.4759 6.12C39.0039 6.312 39.4359 6.56 39.7719 6.864C40.1079 7.152 40.3639 7.456 40.5399 7.776H40.9239V1.2H43.3959V18H40.9719V16.32H40.5879C40.2839 16.832 39.8199 17.296 39.1959 17.712C38.5879 18.128 37.7079 18.336 36.5559 18.336ZM37.2519 16.176C38.3239 16.176 39.2039 15.832 39.8919 15.144C40.5959 14.456 40.9479 13.472 40.9479 12.192V11.976C40.9479 10.712 40.6039 9.736 39.9159 9.048C39.2279 8.36 38.3399 8.016 37.2519 8.016C36.1959 8.016 35.3159 8.36 34.6119 9.048C33.9239 9.736 33.5799 10.712 33.5799 11.976V12.192C33.5799 13.472 33.9239 14.456 34.6119 15.144C35.3159 15.832 36.1959 16.176 37.2519 16.176ZM52.4589 18.336C51.2589 18.336 50.2109 18.088 49.3149 17.592C48.4189 17.08 47.7149 16.368 47.2029 15.456C46.7069 14.528 46.4589 13.456 46.4589 12.24V11.952C46.4589 10.72 46.7069 9.648 47.2029 8.736C47.6989 7.808 48.3869 7.096 49.2669 6.6C50.1629 6.088 51.1949 5.832 52.3629 5.832C53.4989 5.832 54.4909 6.088 55.3389 6.6C56.2029 7.096 56.8749 7.792 57.3549 8.688C57.8349 9.584 58.0749 10.632 58.0749 11.832V12.768H48.9789C49.0109 13.808 49.3549 14.64 50.0109 15.264C50.6829 15.872 51.5149 16.176 52.5069 16.176C53.4349 16.176 54.1309 15.968 54.5949 15.552C55.0749 15.136 55.4429 14.656 55.6989 14.112L57.7389 15.168C57.5149 15.616 57.1869 16.088 56.7549 16.584C56.3389 17.08 55.7869 17.496 55.0989 17.832C54.4109 18.168 53.5309 18.336 52.4589 18.336ZM49.0029 10.872H55.5549C55.4909 9.976 55.1709 9.28 54.5949 8.784C54.0189 8.272 53.2669 8.016 52.3389 8.016C51.4109 8.016 50.6509 8.272 50.0589 8.784C49.4829 9.28 49.1309 9.976 49.0029 10.872Z" fill="#E07B67"/>
<path d="M61.0506 18V1.2H63.5226V18H61.0506ZM70.8632 18.336C70.0152 18.336 69.2552 18.192 68.5832 17.904C67.9272 17.616 67.3992 17.192 66.9992 16.632C66.6152 16.072 66.4232 15.392 66.4232 14.592C66.4232 13.776 66.6152 13.104 66.9992 12.576C67.3992 12.032 67.9352 11.624 68.6072 11.352C69.2952 11.08 70.0712 10.944 70.9352 10.944H74.5352V10.176C74.5352 9.488 74.3272 8.936 73.9112 8.52C73.4952 8.104 72.8552 7.896 71.9912 7.896C71.1432 7.896 70.4952 8.096 70.0472 8.496C69.5992 8.896 69.3032 9.416 69.1592 10.056L66.8552 9.312C67.0472 8.672 67.3512 8.096 67.7672 7.584C68.1992 7.056 68.7672 6.632 69.4712 6.312C70.1752 5.992 71.0232 5.832 72.0152 5.832C73.5512 5.832 74.7592 6.224 75.6392 7.008C76.5192 7.792 76.9592 8.904 76.9592 10.344V15.216C76.9592 15.696 77.1832 15.936 77.6312 15.936H78.6392V18H76.7912C76.2312 18 75.7752 17.856 75.4232 17.568C75.0712 17.28 74.8952 16.888 74.8952 16.392V16.32H74.5352C74.4072 16.56 74.2152 16.84 73.9592 17.16C73.7032 17.48 73.3272 17.76 72.8312 18C72.3352 18.224 71.6792 18.336 70.8632 18.336ZM71.2232 16.296C72.2152 16.296 73.0152 16.016 73.6232 15.456C74.2312 14.88 74.5352 14.096 74.5352 13.104V12.864H71.0792C70.4232 12.864 69.8952 13.008 69.4952 13.296C69.0952 13.568 68.8952 13.976 68.8952 14.52C68.8952 15.064 69.1032 15.496 69.5192 15.816C69.9352 16.136 70.5032 16.296 71.2232 16.296ZM67.7432 4.728L70.6232 1.296H73.5992L76.4792 4.728H73.8872L72.3032 2.832H71.9192L70.3352 4.728H67.7432ZM81.0428 18V6.168H83.4668V7.944H83.8508C84.0748 7.464 84.4748 7.016 85.0508 6.6C85.6268 6.184 86.4828 5.976 87.6188 5.976C88.5148 5.976 89.3068 6.176 89.9948 6.576C90.6988 6.976 91.2508 7.544 91.6508 8.28C92.0508 9 92.2508 9.872 92.2508 10.896V18H89.7788V11.088C89.7788 10.064 89.5228 9.312 89.0108 8.832C88.4988 8.336 87.7948 8.088 86.8988 8.088C85.8748 8.088 85.0508 8.424 84.4268 9.096C83.8188 9.768 83.5148 10.744 83.5148 12.024V18H81.0428ZM100.704 18.336C99.7284 18.336 98.8244 18.096 97.9924 17.616C97.1604 17.136 96.4884 16.448 95.9764 15.552C95.4804 14.64 95.2324 13.544 95.2324 12.264V11.904C95.2324 10.64 95.4804 9.552 95.9764 8.64C96.4724 7.728 97.1364 7.032 97.9684 6.552C98.8004 6.072 99.7124 5.832 100.704 5.832C101.472 5.832 102.112 5.928 102.624 6.12C103.152 6.312 103.584 6.56 103.92 6.864C104.256 7.152 104.512 7.456 104.688 7.776H105.072V1.2H107.544V18H105.12V16.32H104.736C104.432 16.832 103.968 17.296 103.344 17.712C102.736 18.128 101.856 18.336 100.704 18.336ZM101.4 16.176C102.472 16.176 103.352 15.832 104.04 15.144C104.744 14.456 105.096 13.472 105.096 12.192V11.976C105.096 10.712 104.752 9.736 104.064 9.048C103.376 8.36 102.488 8.016 101.4 8.016C100.344 8.016 99.4644 8.36 98.7604 9.048C98.0724 9.736 97.7284 10.712 97.7284 11.976V12.192C97.7284 13.472 98.0724 14.456 98.7604 15.144C99.4644 15.832 100.344 16.176 101.4 16.176ZM111.183 18V6.168H113.655V18H111.183ZM112.431 4.56C111.951 4.56 111.543 4.408 111.207 4.104C110.887 3.784 110.727 3.376 110.727 2.88C110.727 2.384 110.887 1.984 111.207 1.68C111.543 1.36 111.951 1.2 112.431 1.2C112.927 1.2 113.335 1.36 113.655 1.68C113.975 1.984 114.135 2.384 114.135 2.88C114.135 3.376 113.975 3.784 113.655 4.104C113.335 4.408 112.927 4.56 112.431 4.56ZM120.996 18.336C120.148 18.336 119.388 18.192 118.716 17.904C118.06 17.616 117.532 17.192 117.132 16.632C116.748 16.072 116.556 15.392 116.556 14.592C116.556 13.776 116.748 13.104 117.132 12.576C117.532 12.032 118.068 11.624 118.74 11.352C119.428 11.08 120.204 10.944 121.068 10.944H124.668V10.176C124.668 9.488 124.46 8.936 124.044 8.52C123.628 8.104 122.988 7.896 122.124 7.896C121.276 7.896 120.628 8.096 120.18 8.496C119.732 8.896 119.436 9.416 119.292 10.056L116.988 9.312C117.18 8.672 117.484 8.096 117.9 7.584C118.332 7.056 118.9 6.632 119.604 6.312C120.308 5.992 121.156 5.832 122.148 5.832C123.684 5.832 124.892 6.224 125.772 7.008C126.652 7.792 127.092 8.904 127.092 10.344V15.216C127.092 15.696 127.316 15.936 127.764 15.936H128.772V18H126.924C126.364 18 125.908 17.856 125.556 17.568C125.204 17.28 125.028 16.888 125.028 16.392V16.32H124.668C124.54 16.56 124.348 16.84 124.092 17.16C123.836 17.48 123.46 17.76 122.964 18C122.468 18.224 121.812 18.336 120.996 18.336ZM121.356 16.296C122.348 16.296 123.148 16.016 123.756 15.456C124.364 14.88 124.668 14.096 124.668 13.104V12.864H121.212C120.556 12.864 120.028 13.008 119.628 13.296C119.228 13.568 119.028 13.976 119.028 14.52C119.028 15.064 119.236 15.496 119.652 15.816C120.068 16.136 120.636 16.296 121.356 16.296Z" fill="white"/>
</svg>
